<mxfile host="app.diagrams.net" modified="2021-05-31T14:09:04.571Z" agent="5.0 (Macintosh; Intel Mac OS X 10_15_7) AppleWebKit/537.36 (KHTML, like Gecko) Chrome/86.0.4240.193 Safari/537.36" etag="eNsjrP6uQ6ZS6PGGoaCp" version="14.7.3" type="github">
  <diagram id="eZCrWfNiL7ni5dnpCxH4" name="Page-1">
    <mxGraphModel dx="946" dy="536" grid="1" gridSize="10" guides="1" tooltips="1" connect="1" arrows="1" fold="1" page="1" pageScale="1" pageWidth="827" pageHeight="1169" math="0" shadow="0">
      <root>
        <mxCell id="0" />
        <mxCell id="1" parent="0" />
        <mxCell id="BEIMuBi87bRsssPJMvx2-6" style="edgeStyle=orthogonalEdgeStyle;rounded=0;orthogonalLoop=1;jettySize=auto;html=1;exitX=1;exitY=0.5;exitDx=0;exitDy=0;entryX=0;entryY=0.5;entryDx=0;entryDy=0;dashed=1;" edge="1" parent="1" source="BEIMuBi87bRsssPJMvx2-1" target="BEIMuBi87bRsssPJMvx2-4">
          <mxGeometry relative="1" as="geometry" />
        </mxCell>
        <mxCell id="BEIMuBi87bRsssPJMvx2-12" style="edgeStyle=orthogonalEdgeStyle;rounded=0;orthogonalLoop=1;jettySize=auto;html=1;exitX=0.5;exitY=1;exitDx=0;exitDy=0;entryX=0.5;entryY=0;entryDx=0;entryDy=0;" edge="1" parent="1" source="BEIMuBi87bRsssPJMvx2-1" target="BEIMuBi87bRsssPJMvx2-2">
          <mxGeometry relative="1" as="geometry" />
        </mxCell>
        <mxCell id="BEIMuBi87bRsssPJMvx2-1" value="启动类所在jar包" style="rounded=1;whiteSpace=wrap;html=1;fillColor=#ffe6cc;strokeColor=#d79b00;" vertex="1" parent="1">
          <mxGeometry x="210" y="80" width="160" height="60" as="geometry" />
        </mxCell>
        <mxCell id="BEIMuBi87bRsssPJMvx2-7" style="edgeStyle=orthogonalEdgeStyle;rounded=0;orthogonalLoop=1;jettySize=auto;html=1;exitX=1;exitY=0.5;exitDx=0;exitDy=0;entryX=0;entryY=0.5;entryDx=0;entryDy=0;dashed=1;" edge="1" parent="1" source="BEIMuBi87bRsssPJMvx2-2" target="BEIMuBi87bRsssPJMvx2-5">
          <mxGeometry relative="1" as="geometry" />
        </mxCell>
        <mxCell id="BEIMuBi87bRsssPJMvx2-2" value="依赖进来的rpc框架jar包" style="rounded=1;whiteSpace=wrap;html=1;fillColor=#ffe6cc;strokeColor=#d79b00;" vertex="1" parent="1">
          <mxGeometry x="210" y="190" width="160" height="60" as="geometry" />
        </mxCell>
        <mxCell id="BEIMuBi87bRsssPJMvx2-4" value="com.javashitang.RedisRegistry" style="rounded=1;whiteSpace=wrap;html=1;fillColor=#dae8fc;strokeColor=#6c8ebf;" vertex="1" parent="1">
          <mxGeometry x="530" y="80" width="220" height="60" as="geometry" />
        </mxCell>
        <mxCell id="BEIMuBi87bRsssPJMvx2-5" value="com.javashitang.ZookeeperRegistry" style="rounded=1;whiteSpace=wrap;html=1;fillColor=#dae8fc;strokeColor=#6c8ebf;" vertex="1" parent="1">
          <mxGeometry x="530" y="190" width="220" height="60" as="geometry" />
        </mxCell>
        <mxCell id="BEIMuBi87bRsssPJMvx2-9" value="Registry配置文件内容为" style="text;html=1;align=center;verticalAlign=middle;resizable=0;points=[];autosize=1;strokeColor=none;" vertex="1" parent="1">
          <mxGeometry x="380" y="70" width="140" height="20" as="geometry" />
        </mxCell>
        <mxCell id="BEIMuBi87bRsssPJMvx2-13" value="Registry配置文件内容为" style="text;html=1;align=center;verticalAlign=middle;resizable=0;points=[];autosize=1;strokeColor=none;" vertex="1" parent="1">
          <mxGeometry x="380" y="180" width="140" height="20" as="geometry" />
        </mxCell>
      </root>
    </mxGraphModel>
  </diagram>
</mxfile>
